<?xml version="1.0" encoding="UTF-8" standalone="no"?>
<svg
   xmlns:dc="http://purl.org/dc/elements/1.1/"
   xmlns:cc="http://creativecommons.org/ns#"
   xmlns:rdf="http://www.w3.org/1999/02/22-rdf-syntax-ns#"
   xmlns:svg="http://www.w3.org/2000/svg"
   xmlns="http://www.w3.org/2000/svg"
   xmlns:xlink="http://www.w3.org/1999/xlink"
   xmlns:sodipodi="http://sodipodi.sourceforge.net/DTD/sodipodi-0.dtd"
   xmlns:inkscape="http://www.inkscape.org/namespaces/inkscape"
   id="svg6955"
   height="24"
   width="24"
   version="1.1"
   sodipodi:docname="com.github.avojak.iridium.internet-chat-new.svg"
   inkscape:version="0.92.3 (2405546, 2018-03-11)">
  <sodipodi:namedview
     pagecolor="#ffffff"
     bordercolor="#666666"
     borderopacity="1"
     objecttolerance="10"
     gridtolerance="10"
     guidetolerance="10"
     inkscape:pageopacity="0"
     inkscape:pageshadow="2"
     inkscape:window-width="1920"
     inkscape:window-height="1017"
     id="namedview692"
     showgrid="false"
     inkscape:zoom="34.75"
     inkscape:cx="12"
     inkscape:cy="12"
     inkscape:window-x="0"
     inkscape:window-y="30"
     inkscape:window-maximized="1"
     inkscape:current-layer="svg6955" />
  <defs
     id="defs6957">
    <linearGradient
       id="linearGradient4232">
      <stop
         offset="0"
         style="stop-color:#8cd5ff;stop-opacity:1"
         id="stop4234" />
      <stop
         offset="0.26238"
         style="stop-color:#64baff;stop-opacity:1"
         id="stop4236" />
      <stop
         offset="0.704952"
         style="stop-color:#3689e6;stop-opacity:1"
         id="stop4238" />
      <stop
         offset="1"
         style="stop-color:#0d52bf;stop-opacity:1"
         id="stop4240" />
    </linearGradient>
    <linearGradient
       id="linearGradient4221">
      <stop
         offset="0"
         style="stop-color:#d1ff82;stop-opacity:1"
         id="stop4223" />
      <stop
         offset="0.26238"
         style="stop-color:#9bdb4d;stop-opacity:1"
         id="stop4226" />
      <stop
         offset="0.66093999"
         style="stop-color:#68b723;stop-opacity:1"
         id="stop4228" />
      <stop
         offset="1"
         style="stop-color:#3a9104;stop-opacity:1"
         id="stop4230" />
    </linearGradient>
    <linearGradient
       id="linearGradient3853">
      <stop
         id="stop3855"
         offset="0"
         style="stop-color:#000000;stop-opacity:1;" />
      <stop
         id="stop3857"
         offset="1"
         style="stop-color:#000000;stop-opacity:0;" />
    </linearGradient>
    <linearGradient
       id="linearGradient4546">
      <stop
         id="stop4548"
         style="stop-color:#ffffff;stop-opacity:1"
         offset="0" />
      <stop
         id="stop4550"
         style="stop-color:#ffffff;stop-opacity:0.23529412"
         offset="0.33333334" />
      <stop
         id="stop4552"
         style="stop-color:#ffffff;stop-opacity:0.15686275"
         offset="0.95056331" />
      <stop
         id="stop4554"
         style="stop-color:#ffffff;stop-opacity:0.39215687"
         offset="1" />
    </linearGradient>
    <linearGradient
       gradientUnits="userSpaceOnUse"
       y2="28"
       x2="16"
       y1="12"
       x1="16"
       id="linearGradient3944"
       xlink:href="#linearGradient4546" />
    <radialGradient
       r="13.5"
       fy="5.8249998"
       fx="16.583784"
       cy="5.8249998"
       cx="16.583784"
       gradientTransform="matrix(7.8155022e-8,3.4259259,4.4444444,-1.013903e-7,-13.88889,-55.814815)"
       gradientUnits="userSpaceOnUse"
       id="radialGradient3950"
       xlink:href="#linearGradient4221" />
    <radialGradient
       r="13.5"
       fy="6.9499998"
       fx="16.875675"
       cy="6.9499998"
       cx="16.875675"
       gradientTransform="matrix(-7.8155022e-8,3.4259259,-4.4444444,-1.013903e-7,45.88889,-48.814815)"
       gradientUnits="userSpaceOnUse"
       id="radialGradient3954"
       xlink:href="#linearGradient4232" />
    <clipPath
       id="clipPath3075"
       clipPathUnits="userSpaceOnUse">
      <path
         id="path3077"
         d="M 9.5,15 C 6.4443514,15 4,17.444351 4,20.5 l 0,1 C 4,24.555649 6.4443514,27 9.5,27 l 6,0 c 0.219638,0 0.431898,-0.0097 0.625,-0.03125 l 0.21875,-0.03125 0.1875,0.15625 c 0.904516,0.812057 2.163157,0.95166 3.34375,0.59375 -0.424928,-0.320003 -0.881722,-0.595637 -1.25,-1 L 18.25,26.28125 18.71875,25.9375 C 20.101099,24.936953 21,23.340469 21,21.5 l 0,-1 C 21,17.444351 18.555649,15 15.5,15 z"
         style="fill:#000000;fill-opacity:1;stroke:none" />
    </clipPath>
    <linearGradient
       y2="28"
       x2="16"
       y1="12"
       x1="16"
       gradientUnits="userSpaceOnUse"
       id="linearGradient3081"
       xlink:href="#linearGradient4546" />
    <radialGradient
       gradientUnits="userSpaceOnUse"
       gradientTransform="matrix(1,0,0,0.26315789,0,15.842105)"
       r="9.5"
       fy="21.5"
       fx="13.5"
       cy="21.5"
       cx="13.5"
       id="radialGradient3859"
       xlink:href="#linearGradient3853" />
    <radialGradient
       gradientTransform="matrix(0,0.52544994,-0.5716256,0,46.193389,-21.123812)"
       gradientUnits="userSpaceOnUse"
       xlink:href="#linearGradient3242-7-3-8-0-4-58-06"
       id="radialGradient3900-3"
       fy="48.216358"
       fx="65.297462"
       r="31.000002"
       cy="48.216358"
       cx="65.297462" />
    <linearGradient
       id="linearGradient3242-7-3-8-0-4-58-06">
      <stop
         id="stop3244-5-8-5-6-4-3-8"
         style="stop-color:#cdf87e;stop-opacity:1"
         offset="0" />
      <stop
         id="stop3246-9-5-1-5-3-0-7"
         style="stop-color:#a2e34f;stop-opacity:1"
         offset="0.26238" />
      <stop
         id="stop3248-7-2-0-7-5-35-9"
         style="stop-color:#68b723;stop-opacity:1"
         offset="0.66093999" />
      <stop
         id="stop3250-8-2-8-5-6-40-4"
         style="stop-color:#1d7e0d;stop-opacity:1"
         offset="1" />
    </linearGradient>
    <linearGradient
       gradientTransform="matrix(0.2817955,0,0,0.2800956,12.196562,12.014885)"
       gradientUnits="userSpaceOnUse"
       xlink:href="#linearGradient4154-3"
       id="linearGradient3030"
       y2="35.62291"
       x2="24.138529"
       y1="10.631441"
       x1="24.138529" />
    <linearGradient
       id="linearGradient4154-3">
      <stop
         offset="0"
         style="stop-color:#ffffff;stop-opacity:1"
         id="stop4156-4" />
      <stop
         offset="0.00000002"
         style="stop-color:#ffffff;stop-opacity:0.23529412"
         id="stop4158-4" />
      <stop
         offset="1"
         style="stop-color:#ffffff;stop-opacity:0.15686275"
         id="stop4160-52" />
      <stop
         offset="1"
         style="stop-color:#ffffff;stop-opacity:0.39215687"
         id="stop4162-8" />
    </linearGradient>
    <linearGradient
       gradientTransform="matrix(0.2817955,0,0,0.2800956,12.178741,12.02218)"
       gradientUnits="userSpaceOnUse"
       xlink:href="#linearGradient4333"
       id="linearGradient3030-1"
       y2="24.912279"
       x2="24.138529"
       y1="21.34207"
       x1="24.138529" />
    <linearGradient
       id="linearGradient4333">
      <stop
         id="stop4335"
         style="stop-color:#ffffff;stop-opacity:1"
         offset="0" />
      <stop
         id="stop4337"
         style="stop-color:#ffffff;stop-opacity:0.23529412"
         offset="0.00000019" />
      <stop
         id="stop4339"
         style="stop-color:#ffffff;stop-opacity:0.15686275"
         offset="1" />
      <stop
         id="stop4341"
         style="stop-color:#ffffff;stop-opacity:0.39215687"
         offset="1" />
    </linearGradient>
  </defs>
  <metadata
     id="metadata6960">
    <rdf:RDF>
      <cc:Work
         rdf:about="">
        <dc:format>image/svg+xml</dc:format>
        <dc:type
           rdf:resource="http://purl.org/dc/dcmitype/StillImage" />
        <dc:title />
      </cc:Work>
    </rdf:RDF>
  </metadata>
  <path
     transform="matrix(0.89473684,0,0,1.2,1.4210526,-4.8)"
     d="m 23,21.5 a 9.5,2.5 0 1 1 -19,0 9.5,2.5 0 1 1 19,0 z"
     id="path3083"
     style="opacity:0.2;fill:url(#radialGradient3859);fill-opacity:1;stroke:none" />
  <path
     style="fill:url(#radialGradient3950);fill-opacity:1;stroke:#206b00;stroke-opacity:0.49803922"
     d="m 13.5,1.5 c 3.324,0 6,2.676 6,6 l 0,1 c 0,3.324 -2.676,6 -6,6 l -6,0 c -0.229086,0 -0.465233,-0.0065 -0.6875,-0.03125 -1.253055,1.124969 -3.150019,1.387664 -4.6875,0.5 C 2.09777,14.95303 2.08922,14.92251 2.0625,14.90625 2.782861,14.492545 3.424622,13.975506 4,13.34375 2.496476,12.255496 1.5,10.506048 1.5,8.5 l 0,-1 c 0,-3.324 2.676,-6 6,-6 z"
     id="path3946" />
  <path
     id="path3079"
     d="M 9.5,15 C 6.4443514,15 4,17.444351 4,20.5 l 0,1 C 4,24.555649 6.4443514,27 9.5,27 l 6,0 c 0.219638,0 0.431898,-0.0097 0.625,-0.03125 l 0.21875,-0.03125 0.1875,0.15625 c 0.904516,0.812057 2.163157,0.95166 3.34375,0.59375 -0.424928,-0.320003 -0.881722,-0.595637 -1.25,-1 L 18.25,26.28125 18.71875,25.9375 C 20.101099,24.936953 21,23.340469 21,21.5 l 0,-1 C 21,17.444351 18.555649,15 15.5,15 z"
     style="fill:none;stroke:url(#linearGradient3081);stroke-width:2;stroke-miterlimit:4;stroke-opacity:0.49803922;stroke-dasharray:none"
     clip-path="url(#clipPath3075)"
     transform="matrix(-1,0,0,1,23,-13)" />
  <path
     id="rect3117"
     d="m 10.5,8.5 c -3.324,0 -6,2.676 -6,6 l 0,1 c 0,3.324 2.676,6 6,6 l 6,0 c 0.229086,0 0.465233,-0.0065 0.6875,-0.03125 1.253055,1.124969 3.150019,1.387664 4.6875,0.5 0.02723,-0.01572 0.03578,-0.04624 0.0625,-0.0625 C 21.217139,21.492545 20.575378,20.975506 20,20.34375 21.503524,19.255496 22.5,17.506048 22.5,15.5 l 0,-1 c 0,-3.324 -2.676,-6 -6,-6 z"
     style="fill:url(#radialGradient3954);fill-opacity:1;stroke:#002e99;stroke-opacity:0.49803922" />
  <path
     transform="translate(1,-6)"
     clip-path="url(#clipPath3075)"
     style="fill:none;stroke:url(#linearGradient3944);stroke-width:2;stroke-miterlimit:4;stroke-opacity:0.49803922;stroke-dasharray:none"
     d="M 9.5,15 C 6.4443514,15 4,17.444351 4,20.5 l 0,1 C 4,24.555649 6.4443514,27 9.5,27 l 6,0 c 0.219638,0 0.431898,-0.0097 0.625,-0.03125 l 0.21875,-0.03125 0.1875,0.15625 c 0.904516,0.812057 2.163157,0.95166 3.34375,0.59375 -0.424928,-0.320003 -0.881722,-0.595637 -1.25,-1 L 18.25,26.28125 18.71875,25.9375 C 20.101099,24.936953 21,23.340469 21,21.5 l 0,-1 C 21,17.444351 18.555649,15 15.5,15 z"
     id="path3930" />
  <g
     transform="translate(2.86e-4,-2.86e-4)"
     id="g4474">
    <path
       inkscape:connector-curvature="0"
       d="m 16.482179,16.507295 v -3 h 4 v 3 h 3 v 4 h -3 v 2.999991 h -4 v -2.999991 h -2.989465 v -4 z"
       id="path2262"
       style="color:#000000;display:inline;overflow:visible;visibility:visible;fill:url(#radialGradient3900-3);fill-opacity:1;fill-rule:nonzero;stroke:none;stroke-width:0.98542744;marker:none;enable-background:accumulate" />
    <path
       inkscape:connector-curvature="0"
       d="M 17.5,18.004404 V 14.5 h 2 V 18 m 0,1 v 3.5 h -2 V 19"
       id="path2272"
       style="display:inline;opacity:0.5;fill:none;stroke:url(#linearGradient3030);stroke-width:1;stroke-linecap:butt;stroke-linejoin:miter;stroke-miterlimit:4;stroke-dasharray:none;stroke-opacity:1" />
    <path
       inkscape:connector-curvature="0"
       d="m 16.482179,16.507295 v -3 h 4 v 3 h 3 v 4 h -3 v 2.999991 h -4 v -2.999991 h -2.989465 v -4 z"
       id="path2262-2"
       style="color:#000000;clip-rule:nonzero;display:inline;overflow:visible;visibility:visible;opacity:0.5;isolation:auto;mix-blend-mode:normal;color-interpolation:sRGB;color-interpolation-filters:linearRGB;solid-color:#000000;solid-opacity:1;fill:none;fill-opacity:1;fill-rule:nonzero;stroke:#0f5a00;stroke-width:1;stroke-linecap:round;stroke-linejoin:round;stroke-miterlimit:4;stroke-dasharray:none;stroke-dashoffset:0;stroke-opacity:1;marker:none;color-rendering:auto;image-rendering:auto;shape-rendering:auto;text-rendering:auto;enable-background:accumulate" />
    <path
       inkscape:connector-curvature="0"
       d="m 20,17.507295 2.482179,-0.0073 v 2 L 20,19.507295 m -3,0 -2.5,-0.0073 v -2 l 2.5,0.0073"
       id="path2272-2"
       style="display:inline;opacity:0.5;fill:none;stroke:url(#linearGradient3030-1);stroke-width:1;stroke-linecap:butt;stroke-linejoin:miter;stroke-miterlimit:4;stroke-dasharray:none;stroke-opacity:1" />
  </g>
</svg>
