<?xml version="1.0" encoding="UTF-8" standalone="no"?>
<svg
   xmlns:dc="http://purl.org/dc/elements/1.1/"
   xmlns:cc="http://creativecommons.org/ns#"
   xmlns:rdf="http://www.w3.org/1999/02/22-rdf-syntax-ns#"
   xmlns:svg="http://www.w3.org/2000/svg"
   xmlns="http://www.w3.org/2000/svg"
   xmlns:xlink="http://www.w3.org/1999/xlink"
   xmlns:sodipodi="http://sodipodi.sourceforge.net/DTD/sodipodi-0.dtd"
   xmlns:inkscape="http://www.inkscape.org/namespaces/inkscape"
   id="svg6955"
   height="64"
   width="64"
   version="1.1"
   sodipodi:docname="com.github.avojak.iridium.internet-chat-new.svg"
   inkscape:version="0.92.3 (2405546, 2018-03-11)">
  <sodipodi:namedview
     pagecolor="#ffffff"
     bordercolor="#666666"
     borderopacity="1"
     objecttolerance="10"
     gridtolerance="10"
     guidetolerance="10"
     inkscape:pageopacity="0"
     inkscape:pageshadow="2"
     inkscape:window-width="1920"
     inkscape:window-height="1017"
     id="namedview2971"
     showgrid="false"
     inkscape:zoom="13"
     inkscape:cx="32"
     inkscape:cy="32"
     inkscape:window-x="0"
     inkscape:window-y="30"
     inkscape:window-maximized="1"
     inkscape:current-layer="svg6955" />
  <defs
     id="defs6957">
    <linearGradient
       id="linearGradient4566">
      <stop
         id="stop4568"
         offset="0"
         style="stop-color:#000000;stop-opacity:1;" />
      <stop
         id="stop4570"
         offset="1"
         style="stop-color:#000000;stop-opacity:0;" />
    </linearGradient>
    <linearGradient
       id="linearGradient4223">
      <stop
         id="stop4225"
         style="stop-color:#d1ff82;stop-opacity:1"
         offset="0" />
      <stop
         id="stop4227"
         style="stop-color:#9bdb4d;stop-opacity:1"
         offset="0.26238" />
      <stop
         id="stop4229"
         style="stop-color:#68b723;stop-opacity:1"
         offset="0.66093999" />
      <stop
         id="stop4231"
         style="stop-color:#3a9104;stop-opacity:1"
         offset="1" />
    </linearGradient>
    <linearGradient
       id="linearGradient4546">
      <stop
         id="stop4548"
         style="stop-color:#ffffff;stop-opacity:1"
         offset="0" />
      <stop
         id="stop4550"
         style="stop-color:#ffffff;stop-opacity:0.23529412"
         offset="0.33333334" />
      <stop
         id="stop4552"
         style="stop-color:#ffffff;stop-opacity:0.15686275"
         offset="0.95056331" />
      <stop
         id="stop4554"
         style="stop-color:#ffffff;stop-opacity:0.39215687"
         offset="1" />
    </linearGradient>
    <linearGradient
       id="linearGradient4129">
      <stop
         id="stop4131"
         style="stop-color:#8cd5ff;stop-opacity:1"
         offset="0" />
      <stop
         id="stop4133"
         style="stop-color:#64baff;stop-opacity:1"
         offset="0.26238" />
      <stop
         id="stop4135"
         style="stop-color:#3689e6;stop-opacity:1"
         offset="0.704952" />
      <stop
         id="stop4137"
         style="stop-color:#0d52bf;stop-opacity:1"
         offset="1" />
    </linearGradient>
    <radialGradient
       r="18"
       fy="38"
       fx="26"
       cy="38"
       cx="26"
       gradientTransform="matrix(1,0,0,0.33333333,0,25.333333)"
       gradientUnits="userSpaceOnUse"
       id="radialGradient3997"
       xlink:href="#linearGradient4566" />
    <radialGradient
       r="26.5"
       fy="19.739857"
       fx="34.800907"
       cy="19.739857"
       cx="34.800907"
       gradientTransform="matrix(1.4637833e-7,4.5283018,-6.3396227,1.5427113e-7,157.14323,-133.58902)"
       gradientUnits="userSpaceOnUse"
       id="radialGradient3863"
       xlink:href="#linearGradient4129" />
    <clipPath
       id="clipPath3875"
       clipPathUnits="userSpaceOnUse">
      <path
         id="path3877"
         d="m 23,27 c -7.210649,0 -13,5.78935 -13,13 l 0,3 c 0,7.21065 5.789351,13 13,13 l 25,0 c 1.456363,0 2.85662,-0.221514 4.15625,-0.65625 L 52.4375,55.25 52.625,55.4375 c 2.026948,1.744171 5.01199,2.091294 7.46875,0.6875 -1.169748,-0.862286 -2.320702,-1.787499 -3.25,-2.96875 l -0.28125,-0.375 0.34375,-0.3125 C 59.42544,50.100387 61,46.750004 61,43 l 0,-3 C 61,32.78935 55.210649,27 48,27 l -25,0 z"
         style="fill:#804d4d;fill-opacity:1;stroke:none" />
    </clipPath>
    <linearGradient
       gradientUnits="userSpaceOnUse"
       y2="56"
       x2="36"
       y1="28"
       x1="36"
       id="linearGradient3885"
       xlink:href="#linearGradient4546" />
    <radialGradient
       r="26.5"
       fy="19.018763"
       fx="36"
       cy="19.018763"
       cx="36"
       gradientTransform="matrix(-1.1314701e-7,5.1320756,6.037736,1.3311414e-7,-86.830262,-176.75472)"
       gradientUnits="userSpaceOnUse"
       id="radialGradient3895"
       xlink:href="#linearGradient4223" />
    <linearGradient
       y2="56"
       x2="36"
       y1="28"
       x1="36"
       gradientUnits="userSpaceOnUse"
       id="linearGradient3897"
       xlink:href="#linearGradient4546" />
    <radialGradient
       r="18"
       fy="38"
       fx="26"
       cy="38"
       cx="26"
       gradientTransform="matrix(1,0,0,0.33333333,0,25.333333)"
       gradientUnits="userSpaceOnUse"
       id="radialGradient3901"
       xlink:href="#linearGradient4566" />
    <radialGradient
       xlink:href="#linearGradient3242-7-3-8-0-4-58-06"
       id="radialGradient3106"
       gradientUnits="userSpaceOnUse"
       gradientTransform="matrix(0,1.2420762,-1.3512236,0,114.60062,-44.65686)"
       cx="65.916344"
       cy="48.448635"
       fx="65.916344"
       fy="48.448635"
       r="31.000002" />
    <linearGradient
       id="linearGradient3242-7-3-8-0-4-58-06">
      <stop
         id="stop3244-5-8-5-6-4-3-8"
         style="stop-color:#cdf87e;stop-opacity:1"
         offset="0" />
      <stop
         id="stop3246-9-5-1-5-3-0-7"
         style="stop-color:#a2e34f;stop-opacity:1"
         offset="0.26238" />
      <stop
         id="stop3248-7-2-0-7-5-35-9"
         style="stop-color:#68b723;stop-opacity:1"
         offset="0.66093999" />
      <stop
         id="stop3250-8-2-8-5-6-40-4"
         style="stop-color:#1d7e0d;stop-opacity:1"
         offset="1" />
    </linearGradient>
    <linearGradient
       gradientTransform="matrix(0.9862841,0,0,0.8052748,26.938255,31.354975)"
       gradientUnits="userSpaceOnUse"
       xlink:href="#linearGradient4154"
       id="linearGradient3030-44"
       y2="36.813152"
       x2="24.138529"
       y1="9.4932871"
       x1="24.138529" />
    <linearGradient
       id="linearGradient4154">
      <stop
         offset="0"
         style="stop-color:#ffffff;stop-opacity:1"
         id="stop4156" />
      <stop
         offset="0.00000001"
         style="stop-color:#ffffff;stop-opacity:0.23529412"
         id="stop4158" />
      <stop
         offset="1"
         style="stop-color:#ffffff;stop-opacity:0.15686275"
         id="stop4160" />
      <stop
         offset="1"
         style="stop-color:#ffffff;stop-opacity:0.39215687"
         id="stop4162" />
    </linearGradient>
    <linearGradient
       gradientTransform="matrix(0.8119709,0,0,0.97655406,30.811626,27.402953)"
       gradientUnits="userSpaceOnUse"
       xlink:href="#linearGradient4299"
       id="linearGradient3030-1"
       y2="26.211275"
       x2="24.138529"
       y1="20.067223"
       x1="24.138529" />
    <linearGradient
       id="linearGradient4299">
      <stop
         id="stop4301"
         style="stop-color:#ffffff;stop-opacity:1"
         offset="0" />
      <stop
         id="stop4303"
         style="stop-color:#ffffff;stop-opacity:0.23529412"
         offset="0" />
      <stop
         id="stop4305"
         style="stop-color:#ffffff;stop-opacity:0.15686275"
         offset="1" />
      <stop
         id="stop4307"
         style="stop-color:#ffffff;stop-opacity:0.39215687"
         offset="1" />
    </linearGradient>
  </defs>
  <metadata
     id="metadata6960">
    <rdf:RDF>
      <cc:Work
         rdf:about="">
        <dc:format>image/svg+xml</dc:format>
        <dc:type
           rdf:resource="http://purl.org/dc/dcmitype/StillImage" />
        <dc:title />
      </cc:Work>
    </rdf:RDF>
  </metadata>
  <path
     style="opacity:0.2;fill:url(#radialGradient3901);fill-opacity:1;stroke:none"
     id="path3899"
     d="M 44,38 A 18,6 0 1 1 8,38 18,6 0 1 1 44,38 z"
     transform="matrix(1.4444444,0,0,1.3333333,-9.0555555,-16.166667)" />
  <path
     style="fill:url(#radialGradient3895);fill-opacity:1;stroke:#206b00;stroke-width:1;stroke-opacity:0.49803922"
     d="m 41,6.5000004 c 7.479,0 13.5,6.0209986 13.5,13.4999996 l 0,3 c 0,7.479001 -6.021,13.5 -13.5,13.5 l -25,0 c -1.508329,0 -2.960202,-0.235146 -4.3125,-0.6875 -2.1919151,1.886124 -5.4164201,2.277714 -8.0625001,0.75 -0.182011,-0.105084 -0.36239,-0.225315 -0.53125,-0.34375 1.356763,-0.917691 2.607943,-2.042474 3.65625,-3.375 -2.6157,-2.459095 -4.25,-5.953705 -4.25,-9.84375 l 0,-3 c 0,-7.479001 6.021,-13.4999996 13.5000001,-13.4999996 l 25,0 z"
     id="path3887" />
  <path
     transform="matrix(-1,0,0,1,64,-20)"
     id="path3889"
     d="m 23,27 c -7.210649,0 -13,5.78935 -13,13 l 0,3 c 0,7.21065 5.789351,13 13,13 l 25,0 c 1.456363,0 2.85662,-0.221514 4.15625,-0.65625 L 52.4375,55.25 52.625,55.4375 c 2.026948,1.744171 5.01199,2.091294 7.46875,0.6875 -1.169748,-0.862286 -2.320702,-1.787499 -3.25,-2.96875 l -0.28125,-0.375 0.34375,-0.3125 C 59.42544,50.100387 61,46.750004 61,43 l 0,-3 C 61,32.78935 55.210649,27 48,27 l -25,0 z"
     style="fill:none;stroke:url(#linearGradient3897);stroke-width:2;stroke-miterlimit:4;stroke-opacity:0.49803922;stroke-dasharray:none"
     clip-path="url(#clipPath3875)" />
  <path
     transform="matrix(1.4444444,0,0,1.3333333,-1.0555555,2.833333)"
     d="M 44,38 A 18,6 0 1 1 8,38 18,6 0 1 1 44,38 z"
     id="path4564"
     style="opacity:0.2;fill:url(#radialGradient3997);fill-opacity:1;stroke:none" />
  <path
     id="rect3064"
     d="M 23 26.5 C 15.521 26.5 9.5 32.520999 9.5 40 L 9.5 43 C 9.5 50.479001 15.521 56.5 23 56.5 L 48 56.5 C 49.508329 56.5 50.960202 56.264854 52.3125 55.8125 C 54.504415 57.698624 57.72892 58.090214 60.375 56.5625 C 60.557011 56.457416 60.73739 56.337185 60.90625 56.21875 C 59.549487 55.301059 58.298307 54.176276 57.25 52.84375 C 59.8657 50.384655 61.5 46.890045 61.5 43 L 61.5 40 C 61.5 32.520999 55.479 26.5 48 26.5 L 23 26.5 z "
     style="fill:url(#radialGradient3863);fill-opacity:1;stroke:#002e99;stroke-width:1;stroke-opacity:0.49803922" />
  <path
     clip-path="url(#clipPath3875)"
     style="fill:none;fill-opacity:1;stroke:url(#linearGradient3885);stroke-width:2;stroke-opacity:0.49803922000000000;stroke-miterlimit:4;stroke-dasharray:none"
     d="M 23 27 C 15.789351 27 10 32.78935 10 40 L 10 43 C 10 50.21065 15.789351 56 23 56 L 48 56 C 49.456363 56 50.85662 55.778486 52.15625 55.34375 L 52.4375 55.25 L 52.625 55.4375 C 54.651948 57.181671 57.63699 57.528794 60.09375 56.125 C 58.924002 55.262714 57.773048 54.337501 56.84375 53.15625 L 56.5625 52.78125 L 56.90625 52.46875 C 59.42544 50.100387 61 46.750004 61 43 L 61 40 C 61 32.78935 55.210649 27 48 27 L 23 27 z "
     id="path3873" />
  <g
     id="g3047">
    <path
       style="color:#000000;display:inline;overflow:visible;visibility:visible;fill:url(#radialGradient3106);fill-opacity:1;fill-rule:nonzero;stroke:none;stroke-width:0.98542738;marker:none;enable-background:accumulate"
       id="path2262"
       d="M 44.500287,45.4997 V 37.466 h 9.104416 l -0.104416,8.0337 h 8.007286 v 9 h -8.007286 v 8.0073 h -9 V 54.4997 H 36.493 v -9 z"
       inkscape:connector-curvature="0" />
    <path
       style="color:#000000;clip-rule:nonzero;display:inline;overflow:visible;visibility:visible;opacity:0.5;isolation:auto;mix-blend-mode:normal;color-interpolation:sRGB;color-interpolation-filters:linearRGB;solid-color:#000000;solid-opacity:1;fill:none;fill-opacity:1;fill-rule:nonzero;stroke:#0f5a00;stroke-width:1;stroke-linecap:round;stroke-linejoin:round;stroke-miterlimit:4;stroke-dasharray:none;stroke-dashoffset:0;stroke-opacity:1;marker:none;color-rendering:auto;image-rendering:auto;shape-rendering:auto;text-rendering:auto;enable-background:accumulate"
       id="path2262-9"
       d="M 44.500287,45.4997 V 37.466 h 9.104416 l -0.104416,8.0337 h 8.007286 v 9 h -8.007286 v 8.0073 h -9 V 54.4997 H 36.493 v -9 z"
       inkscape:connector-curvature="0" />
    <path
       d="m 45.500287,47.006011 v -8.50633 h 6.999999 v 8.493668 m 0,6.006331 v 8.5 h -6.999999 v -8.5"
       id="path2272-4"
       style="display:inline;opacity:0.5;fill:none;stroke:url(#linearGradient3030-44);stroke-width:0.99999994;stroke-linecap:butt;stroke-linejoin:miter;stroke-miterlimit:4;stroke-dasharray:none;stroke-opacity:1"
       inkscape:connector-curvature="0" />
    <path
       d="m 53.000287,46.526821 7.49986,-0.02535 v 6.973006 l -7.49986,0.02535 m -8,0 -7.500141,-0.02535 v -6.973006 l 7.500141,0.02535"
       id="path2272-2"
       style="display:inline;opacity:0.5;fill:none;stroke:url(#linearGradient3030-1);stroke-width:1;stroke-linecap:butt;stroke-linejoin:miter;stroke-miterlimit:4;stroke-dasharray:none;stroke-opacity:1"
       inkscape:connector-curvature="0" />
  </g>
</svg>
