<?xml version="1.0" encoding="UTF-8" standalone="no"?>
<svg
   xmlns:dc="http://purl.org/dc/elements/1.1/"
   xmlns:cc="http://creativecommons.org/ns#"
   xmlns:rdf="http://www.w3.org/1999/02/22-rdf-syntax-ns#"
   xmlns:svg="http://www.w3.org/2000/svg"
   xmlns="http://www.w3.org/2000/svg"
   xmlns:xlink="http://www.w3.org/1999/xlink"
   xmlns:sodipodi="http://sodipodi.sourceforge.net/DTD/sodipodi-0.dtd"
   xmlns:inkscape="http://www.inkscape.org/namespaces/inkscape"
   inkscape:version="1.0 (4035a4fb49, 2020-05-01)"
   sodipodi:docname="com.github.avojak.iridium.network-server-security-high.svg"
   id="svg4569"
   height="64"
   width="64"
   version="1.0">
  <sodipodi:namedview
     inkscape:current-layer="svg4569"
     inkscape:window-maximized="0"
     inkscape:window-y="236"
     inkscape:window-x="339"
     inkscape:cy="45.519888"
     inkscape:cx="42.762883"
     inkscape:zoom="19.46875"
     showgrid="false"
     id="namedview201"
     inkscape:window-height="899"
     inkscape:window-width="996"
     inkscape:pageshadow="2"
     inkscape:pageopacity="0"
     guidetolerance="10"
     gridtolerance="10"
     objecttolerance="10"
     borderopacity="1"
     bordercolor="#666666"
     pagecolor="#ffffff" />
  <metadata
     id="metadata54">
    <rdf:RDF>
      <cc:Work
         rdf:about="">
        <dc:format>image/svg+xml</dc:format>
        <dc:type
           rdf:resource="http://purl.org/dc/dcmitype/StillImage" />
      </cc:Work>
    </rdf:RDF>
  </metadata>
  <defs
     id="defs4571">
    <linearGradient
       id="linearGradient4084">
      <stop
         id="stop4086"
         style="stop-color:#ffffff;stop-opacity:1"
         offset="0" />
      <stop
         id="stop4088"
         style="stop-color:#ffffff;stop-opacity:0.23529412"
         offset="0.01596775" />
      <stop
         id="stop4090"
         style="stop-color:#ffffff;stop-opacity:0.15686275"
         offset="0.99257565" />
      <stop
         id="stop4092"
         style="stop-color:#ffffff;stop-opacity:0.39215687"
         offset="1" />
    </linearGradient>
    <linearGradient
       id="linearGradient3912">
      <stop
         offset="0"
         style="stop-color:#787878;stop-opacity:1"
         id="stop3914" />
      <stop
         offset="0.35046947"
         style="stop-color:#bebebe;stop-opacity:1"
         id="stop3916" />
      <stop
         offset="0.49417919"
         style="stop-color:#c8c8c8;stop-opacity:1"
         id="stop3918" />
      <stop
         offset="0.58907253"
         style="stop-color:#e6e6e6;stop-opacity:1"
         id="stop3920" />
      <stop
         offset="1"
         style="stop-color:#8c8c8c;stop-opacity:1"
         id="stop3922" />
    </linearGradient>
    <linearGradient
       id="linearGradient10691-1">
      <stop
         offset="0"
         style="stop-color:#000000;stop-opacity:1"
         id="stop10693-3" />
      <stop
         offset="1"
         style="stop-color:#000000;stop-opacity:0"
         id="stop10695-1" />
    </linearGradient>
    <linearGradient
       gradientTransform="matrix(1.3111548,0,0,1.3337028,-437.61398,-66.532889)"
       gradientUnits="userSpaceOnUse"
       xlink:href="#linearGradient3912"
       id="linearGradient2451"
       y2="94.396416"
       x2="361.10583"
       y1="87.050117"
       x1="361.10583" />
    <radialGradient
       gradientTransform="matrix(2.5824009,0,0,0.5533716,14.690909,17.92982)"
       gradientUnits="userSpaceOnUse"
       xlink:href="#linearGradient10691-1"
       id="radialGradient2456"
       fy="73.615715"
       fx="6.702713"
       r="7.228416"
       cy="73.615715"
       cx="6.702713" />
    <linearGradient
       id="outerBackgroundGradient-5-0">
      <stop
         style="stop-color:#261e2b;stop-opacity:1;"
         offset="0"
         id="stop3864-8-6-4" />
      <stop
         style="stop-color:#352f39;stop-opacity:1;"
         offset="1"
         id="stop3866-9-1-86" />
    </linearGradient>
    <linearGradient
       id="linearGradient3880">
      <stop
         style="stop-color:#ffffff;stop-opacity:1;"
         offset="0"
         id="stop3883" />
      <stop
         style="stop-color:#ffffff;stop-opacity:0;"
         offset="1"
         id="stop3885" />
    </linearGradient>
    <linearGradient
       y2="12"
       x2="20"
       y1="-3"
       x1="10"
       gradientTransform="matrix(1.5500003,0,0,1.5555554,-0.55000582,17.444445)"
       gradientUnits="userSpaceOnUse"
       id="linearGradient3141"
       xlink:href="#linearGradient3880" />
    <linearGradient
       y2="42.121033"
       x2="23.99999"
       y1="5.7531762"
       x1="23.99999"
       gradientTransform="matrix(1.6486489,0,0,1.135135,-7.5675799,-0.74323082)"
       gradientUnits="userSpaceOnUse"
       id="linearGradient3144"
       xlink:href="#linearGradient4084" />
    <linearGradient
       y2="2"
       x2="15"
       y1="24.618645"
       x1="15"
       gradientTransform="matrix(1.4000003,0,0,1.5652174,2.5999953,21.02178)"
       gradientUnits="userSpaceOnUse"
       id="linearGradient3148"
       xlink:href="#outerBackgroundGradient-5-0" />
    <linearGradient
       y2="40.265266"
       x2="25.004524"
       y1="51.07592"
       x1="25.004524"
       gradientTransform="matrix(1.2162163,0,0,0.83783786,2.6663586,14.977385)"
       gradientUnits="userSpaceOnUse"
       id="linearGradient3152-7"
       xlink:href="#linearGradient4054-5" />
    <linearGradient
       id="linearGradient4054-5">
      <stop
         id="stop4056-0"
         style="stop-color:#ffffff;stop-opacity:1"
         offset="0" />
      <stop
         id="stop4058-4"
         style="stop-color:#ffffff;stop-opacity:0.23529412"
         offset="0.06316455" />
      <stop
         id="stop4060-4"
         style="stop-color:#ffffff;stop-opacity:0.15686275"
         offset="0.96892834" />
      <stop
         id="stop4062-0"
         style="stop-color:#ffffff;stop-opacity:0.39215687"
         offset="1" />
    </linearGradient>
    <linearGradient
       id="outerBackgroundGradient-5-0-4">
      <stop
         style="stop-color:#261e2b;stop-opacity:1;"
         offset="0"
         id="stop3864-8-6-4-3" />
      <stop
         style="stop-color:#352f39;stop-opacity:1;"
         offset="1"
         id="stop3866-9-1-86-8" />
    </linearGradient>
    <linearGradient
       xlink:href="#outerBackgroundGradient-5-0-4"
       id="linearGradient4109"
       gradientUnits="userSpaceOnUse"
       gradientTransform="matrix(1.3500003,0,0,1.4782609,3.6499947,21.326128)"
       x1="15"
       y1="24.618645"
       x2="15"
       y2="2" />
    <linearGradient
       y2="47.249992"
       x2="172.20302"
       y1="17.249992"
       x1="172.20302"
       gradientTransform="matrix(0.5,0,0,0.5,-32.434846,32.54166)"
       gradientUnits="userSpaceOnUse"
       id="linearGradient4377"
       xlink:href="#linearGradient4804" />
    <linearGradient
       id="linearGradient4804">
      <stop
         id="stop4806"
         offset="0"
         style="stop-color:#206b00;stop-opacity:1" />
      <stop
         id="stop4809"
         offset="1"
         style="stop-color:#206b00;stop-opacity:0" />
    </linearGradient>
    <linearGradient
       y2="36.139797"
       x2="130.96898"
       y1="21.957684"
       x1="130.96898"
       gradientTransform="matrix(1.1634373,0,0,1.1634373,-93.707525,16.12027)"
       gradientUnits="userSpaceOnUse"
       id="linearGradient4340"
       xlink:href="#linearGradient4342" />
    <linearGradient
       id="linearGradient4342">
      <stop
         id="stop4344"
         style="stop-color:#ffffff;stop-opacity:1"
         offset="0" />
      <stop
         id="stop4346"
         style="stop-color:#ffffff;stop-opacity:0.23529412"
         offset="0.00641762" />
      <stop
         id="stop4348"
         style="stop-color:#ffffff;stop-opacity:0.15686275"
         offset="0.79602259" />
      <stop
         id="stop4350"
         style="stop-color:#ffffff;stop-opacity:1"
         offset="1" />
    </linearGradient>
    <linearGradient
       y2="47.249992"
       x2="203.18126"
       y1="15.249992"
       x1="203.18126"
       gradientTransform="matrix(0.5,0,0,0.5,-48.923966,32.54166)"
       gradientUnits="userSpaceOnUse"
       id="linearGradient4309"
       xlink:href="#linearGradient5239" />
    <linearGradient
       id="linearGradient5239">
      <stop
         style="stop-color:#9bdb4d;stop-opacity:1"
         offset="0"
         id="stop5241" />
      <stop
         style="stop-color:#68b723;stop-opacity:1"
         offset="1"
         id="stop5243" />
    </linearGradient>
    <linearGradient
       y2="51.275898"
       x2="1055.881"
       y1="51.275898"
       x1="1179.2244"
       spreadMethod="reflect"
       gradientTransform="matrix(0.0891819,0,0,0.0779309,-51.498806,34.420683)"
       gradientUnits="userSpaceOnUse"
       id="linearGradient4282"
       xlink:href="#linearGradient2793-2-0-669-94-2" />
    <linearGradient
       id="linearGradient2793-2-0-669-94-2">
      <stop
         id="stop4681-3-1"
         style="stop-color:#b4b4b4;stop-opacity:1"
         offset="0" />
      <stop
         id="stop4683-67-4"
         style="stop-color:#ffffff;stop-opacity:1"
         offset="1" />
    </linearGradient>
    <radialGradient
       cx="99.157013"
       cy="186.17059"
       r="62.769119"
       fx="99.157013"
       fy="186.17059"
       id="radialGradient3108"
       xlink:href="#linearGradient3820-7-2-2"
       gradientUnits="userSpaceOnUse"
       gradientTransform="matrix(0.11151981,0,0,0.03548359,39.608694,51.333386)" />
    <linearGradient
       id="linearGradient3820-7-2-2">
      <stop
         offset="0"
         style="stop-color:#3d3d3d;stop-opacity:1"
         id="stop3822-2-6-36" />
      <stop
         offset="0.5"
         style="stop-color:#686868;stop-opacity:0.49803922"
         id="stop3864-8-7-6" />
      <stop
         offset="1"
         style="stop-color:#686868;stop-opacity:0"
         id="stop3824-1-2-4" />
    </linearGradient>
  </defs>
  <path
     style="opacity:0.3;fill:url(#radialGradient2456);fill-opacity:1;fill-rule:nonzero;stroke:none;stroke-width:0.80000001;marker:none;visibility:visible;display:inline;overflow:visible"
     id="path2589"
     d="m 50.666665,58.666665 c 0,2.20914 -8.357351,4 -18.666667,4 -10.309315,0 -18.666665,-1.79086 -18.666665,-4 0,-2.209138 8.35735,-4 18.666665,-4 10.309316,0 18.666667,1.790862 18.666667,4 l 0,0 z" />
  <path
     style="fill:url(#linearGradient2451);fill-opacity:1;fill-rule:nonzero;stroke:none;stroke-width:0.99827456000000003;stroke-linecap:round;stroke-linejoin:round;stroke-miterlimit:4;stroke-opacity:1;stroke-dasharray:none;stroke-dashoffset:0.50000001000000005;marker:none;visibility:visible;display:inline;overflow:visible;enable-background:new"
     id="rect1789"
     d="m 23.919786,48.499137 c 0,0 0.186555,5.677784 -0.743925,7.001192 -0.93048,1.323409 -2.781966,1.338846 -2.781966,1.338846 -1.188092,0.139034 -1.19792,2.661687 0,2.661687 l 23.212115,0 c 1.197921,0 1.188341,-2.524427 0,-2.661687 0,0 -1.851406,-0.01544 -2.781873,-1.338846 -0.930466,-1.323405 -0.744017,-7.001192 -0.744017,-7.001192 l -16.160334,0 0,0 z" />
  <rect
     style="fill:#1a1a1a;fill-opacity:1;stroke:#000000;stroke-width:1.00023937;stroke-linecap:round;stroke-linejoin:round;stroke-miterlimit:4;stroke-opacity:1;stroke-dasharray:none;stroke-dashoffset:0.50000001"
     id="rect2722"
     y="4.5002007"
     x="0.50011969"
     ry="1.3333333"
     rx="1.4000021"
     height="43.99968"
     width="62.99976" />
  <path
     id="rect2722-0"
     d="m 3.9999997,8.5000405 55.9999993,0 0,36.0000005 -55.9999993,0 z"
     style="fill:url(#linearGradient3148);fill-opacity:1;stroke:none;display:inline" />
  <path
     id="path3942"
     d="M 4 8.5 L 4 44.5 L 60 44.5 L 60 8.5 L 4 8.5 z M 5 9.5 L 59 9.5 L 59 43.5 L 5 43.5 L 5 9.5 z "
     style="opacity:0.2;fill:#000000;fill-opacity:1;stroke:none;display:inline" />
  <rect
     style="opacity:0.20000000000000001;fill:none;stroke:url(#linearGradient3144);stroke-width:0.99999987999999995;stroke-linecap:round;stroke-linejoin:round;stroke-miterlimit:4;stroke-opacity:1;stroke-dasharray:none;stroke-dashoffset:0"
     id="rect6741"
     y="5.5"
     x="1.5"
     ry="0"
     rx="0"
     height="42"
     width="61.000004" />
  <path
     id="rect3872"
     d="M 1,5 1,33 63,12.583334 63,5 z"
     style="opacity:0.2;fill:url(#linearGradient3141);fill-opacity:1;stroke:none;display:inline" />
  <path
     style="fill:none;fill-opacity:1;fill-rule:nonzero;stroke:#000000;stroke-width:0.99827462000000000;stroke-linecap:round;stroke-linejoin:round;stroke-miterlimit:4;stroke-opacity:1;stroke-dasharray:none;stroke-dashoffset:0.50000001000000005;marker:none;visibility:visible;display:inline;overflow:visible;enable-background:new;opacity:0.40000000000000002;color:#000000"
     id="rect1789-9"
     d="m 23.919786,48.499137 c 0,0 0.186555,5.677784 -0.743925,7.001192 -0.93048,1.323409 -2.781966,1.338846 -2.781966,1.338846 -1.188092,0.139034 -1.19792,2.661687 0,2.661687 l 23.212115,0 c 1.197921,0 1.188341,-2.524427 0,-2.661687 0,0 -1.851406,-0.01544 -2.781873,-1.338846 -0.930466,-1.323405 -0.744017,-7.001192 -0.744017,-7.001192 l -16.160334,0 0,0 z" />
  <path
     d="m 24.90625,49.5 c 0.01129,0.552305 0.04325,0.949789 0,2.03125 C 24.873643,52.346505 24.8079,53.220881 24.6875,54 24.5671,54.779119 24.435885,55.442547 24,56.0625 c -1.193603,1.697645 -3.115921,1.748832 -3.40625,1.75 -0.03548,0.06074 -0.09343,0.236278 -0.09375,0.40625 -2.61e-4,0.137285 0.04053,0.22439 0.0625,0.28125 l 22.875,0 c 0.02204,-0.05704 0.06275,-0.143846 0.0625,-0.28125 -3.15e-4,-0.170119 -0.05842,-0.345791 -0.09375,-0.40625 C 43.11592,57.811332 41.193593,57.760151 40,56.0625 39.564121,55.442548 39.432899,54.779118 39.3125,54 c -0.120399,-0.779118 -0.186142,-1.653495 -0.21875,-2.46875 -0.04326,-1.081461 -0.01129,-1.478945 0,-2.03125 l -14.1875,0 z m 18.5,8.3125 c -0.03533,-0.06046 0.01418,0.02567 0.0625,0.03125 l 0,-0.03125 c -0.005,3.2e-5 -0.0552,2.9e-5 -0.0625,0 z m -22.8125,0 c -0.0073,2.9e-5 -0.05749,3.2e-5 -0.0625,0 -3.58e-4,-2e-6 3.46e-4,0.03125 0,0.03125 0.04802,-0.0056 0.09798,-0.09199 0.0625,-0.03125 z"
     id="path4043"
     style="opacity:0.59999999999999998;color:#000000;fill:none;stroke:url(#linearGradient3152-7);stroke-width:0.99999994000000003;stroke-linecap:round;stroke-linejoin:round;stroke-miterlimit:4;stroke-opacity:1;stroke-dasharray:none;stroke-dashoffset:0;marker:none;visibility:visible;display:inline;overflow:visible;enable-background:accumulate" />
  <path
     d="m 57.666665,57.939384 a 7,2.2272727 0 0 1 -14,0 7,2.2272727 0 1 1 14,0 z"
     id="path3818-0-2-5"
     style="opacity:0.6;fill:url(#radialGradient3108);fill-opacity:1;stroke:none" />
  <path
     style="color:#000000;clip-rule:nonzero;display:inline;overflow:visible;visibility:visible;opacity:1;isolation:auto;mix-blend-mode:normal;color-interpolation:sRGB;color-interpolation-filters:linearRGB;solid-color:#000000;solid-opacity:1;fill:url(#linearGradient4282);fill-opacity:1;fill-rule:nonzero;stroke:none;stroke-width:1;stroke-linecap:butt;stroke-linejoin:miter;stroke-miterlimit:4;stroke-dasharray:none;stroke-dashoffset:0;stroke-opacity:1;marker:none;color-rendering:auto;image-rendering:auto;shape-rendering:auto;text-rendering:auto;enable-background:accumulate"
     d="m 41.666665,41.018219 9,-2.824219 9.003906,2.828125 c 0,11.144532 -1.163192,12.532129 -9.003906,17.058967 -7.85616,-4.535756 -9,-5.914435 -9,-17.062873 z"
     id="path4257" />
  <path
     id="path4284"
     d="m 43.666665,42.316069 7,-2.179687 7,2.179687 c 0,8.500001 -1,10.450418 -6.999217,13.914068 -6.000783,-3.464553 -7.000783,-5.414067 -7.000783,-13.914068 z"
     style="color:#000000;clip-rule:nonzero;display:inline;overflow:visible;visibility:visible;opacity:1;isolation:auto;mix-blend-mode:normal;color-interpolation:sRGB;color-interpolation-filters:linearRGB;solid-color:#000000;solid-opacity:1;fill:url(#linearGradient4309);fill-opacity:1;fill-rule:nonzero;stroke:none;stroke-width:1;stroke-linecap:butt;stroke-linejoin:miter;stroke-miterlimit:4;stroke-dasharray:none;stroke-dashoffset:0;stroke-opacity:1;marker:none;color-rendering:auto;image-rendering:auto;shape-rendering:auto;text-rendering:auto;enable-background:accumulate" />
  <path
     id="path8117"
     d="m 41.166665,40.666656 9.5,-3 9.5,3 c 0,11.500001 -1,13.092532 -9.5,18.000009 -8.5,-4.907477 -9.5,-6.500008 -9.5,-18.000009 z"
     style="opacity:0.5;fill:none;fill-opacity:1;stroke:#555761;stroke-width:1;stroke-linecap:round;stroke-linejoin:round;stroke-opacity:1" />
  <path
     style="color:#000000;clip-rule:nonzero;display:inline;overflow:visible;visibility:visible;opacity:0.5;isolation:auto;mix-blend-mode:normal;color-interpolation:sRGB;color-interpolation-filters:linearRGB;solid-color:#000000;solid-opacity:1;fill:none;fill-opacity:1;fill-rule:nonzero;stroke:#555761;stroke-width:1;stroke-linecap:round;stroke-linejoin:round;stroke-miterlimit:4;stroke-dasharray:none;stroke-dashoffset:0;stroke-opacity:1;color-rendering:auto;image-rendering:auto;shape-rendering:auto;text-rendering:auto;enable-background:accumulate"
     d="m 44.166665,42.666656 6.5,-2 6.5,2 c 0,8.500001 -1.5,10.113705 -6.499217,13.000005 -5.000783,-2.887203 -6.500783,-4.500004 -6.500783,-13.000005 z"
     id="path8128" />
  <path
     style="color:#000000;clip-rule:nonzero;display:inline;overflow:visible;visibility:visible;opacity:0.7;isolation:auto;mix-blend-mode:normal;color-interpolation:sRGB;color-interpolation-filters:linearRGB;solid-color:#000000;solid-opacity:1;fill:none;fill-opacity:1;fill-rule:nonzero;stroke:url(#linearGradient4340);stroke-width:1;stroke-linecap:round;stroke-linejoin:miter;stroke-miterlimit:4.1;stroke-dasharray:none;stroke-dashoffset:0;stroke-opacity:1;marker:none;color-rendering:auto;image-rendering:auto;shape-rendering:auto;text-rendering:auto;enable-background:accumulate"
     d="m 42.166665,41.393219 8.5,-2.6875 8.5,2.690248 c 0,10.27069 -1,11.784314 -8.5,16.11444 -7.523596,-4.34375 -8.5,-5.84375 -8.5,-16.117188 z"
     id="path4311" />
  <path
     id="path4352"
     d="m 45.166665,43.401491 5.5,-1.679592 5.5,1.679592 c 0,7.265166 -1.5,8.799967 -5.499217,11.108916 -4.000783,-2.309853 -5.500783,-3.84375 -5.500783,-11.108916 z"
     style="color:#000000;clip-rule:nonzero;display:inline;overflow:visible;visibility:visible;opacity:0.15;isolation:auto;mix-blend-mode:normal;color-interpolation:sRGB;color-interpolation-filters:linearRGB;solid-color:#000000;solid-opacity:1;fill:none;fill-opacity:0;fill-rule:nonzero;stroke:url(#linearGradient4377);stroke-width:1;stroke-linecap:round;stroke-linejoin:miter;stroke-miterlimit:4;stroke-dasharray:none;stroke-dashoffset:0;stroke-opacity:1;marker:none;color-rendering:auto;image-rendering:auto;shape-rendering:auto;text-rendering:auto;enable-background:accumulate" />
  <path
     id="path4379"
     d="m 41.666665,41.018219 9,-2.824219 c 0,8.472656 0,9.972657 0,19.887092 -7.85616,-4.535756 -9,-5.914435 -9,-17.062873 z"
     style="color:#000000;clip-rule:nonzero;display:inline;overflow:visible;visibility:visible;opacity:0.2;isolation:auto;mix-blend-mode:normal;color-interpolation:sRGB;color-interpolation-filters:linearRGB;solid-color:#000000;solid-opacity:1;fill:#ffffff;fill-opacity:1;fill-rule:nonzero;stroke:none;stroke-width:1;stroke-linecap:butt;stroke-linejoin:miter;stroke-miterlimit:4;stroke-dasharray:none;stroke-dashoffset:0;stroke-opacity:1;marker:none;color-rendering:auto;image-rendering:auto;shape-rendering:auto;text-rendering:auto;enable-background:accumulate" />
  <path
     style="color:#000000;clip-rule:nonzero;display:inline;overflow:visible;visibility:visible;opacity:0.3;isolation:auto;mix-blend-mode:normal;color-interpolation:sRGB;color-interpolation-filters:linearRGB;solid-color:#000000;solid-opacity:1;fill:#ffffff;fill-opacity:1;fill-rule:nonzero;stroke:none;stroke-width:1;stroke-linecap:butt;stroke-linejoin:miter;stroke-miterlimit:4;stroke-dasharray:none;stroke-dashoffset:0;stroke-opacity:1;marker:none;color-rendering:auto;image-rendering:auto;shape-rendering:auto;text-rendering:auto;enable-background:accumulate"
     d="m 54.007601,45.242826 a 1,1 0 0 0 -0.6875,0.30274 l -3.79297,3.792971 -1.49219,-1.49219 c -0.942,-0.982001 -2.39606,0.47206 -1.41406,1.41406 l 2.90625,2.90625 5.20703,-5.207031 c 0.654,-0.636 0.18544,-1.7428 -0.72656,-1.7168 z"
     id="path4299" />
  <path
     id="rect4140"
     d="m 54.007601,44.242826 a 1,1 0 0 0 -0.6875,0.30274 l -3.79297,3.792971 -1.49219,-1.492191 c -0.942,-0.982 -2.39606,0.472061 -1.41406,1.414061 l 2.90625,2.90625 5.20703,-5.207031 c 0.654,-0.636 0.18544,-1.7428 -0.72656,-1.7168 z"
     style="color:#000000;clip-rule:nonzero;display:inline;overflow:visible;visibility:visible;opacity:1;isolation:auto;mix-blend-mode:normal;color-interpolation:sRGB;color-interpolation-filters:linearRGB;solid-color:#000000;solid-opacity:1;fill:#206b00;fill-opacity:1;fill-rule:nonzero;stroke:none;stroke-width:1.64632;stroke-linecap:butt;stroke-linejoin:miter;stroke-miterlimit:4;stroke-dasharray:none;stroke-dashoffset:0;stroke-opacity:1;marker:none;color-rendering:auto;image-rendering:auto;shape-rendering:auto;text-rendering:auto;enable-background:accumulate" />
</svg>
